<?xml version="1.0" encoding="UTF-8"?><svg id="Livello_1" xmlns="http://www.w3.org/2000/svg" viewBox="0 0 642.02 762.69"><defs><style>.cls-1{fill:#efefee;}</style></defs><path class="cls-1" d="M429.63,724.99c-11.76,16.61-27.67,28.07-47.74,34.43-20.09,6.34-39.54,3.46-58.38-8.62-30.72-21.75-45.2-45.72-43.49-71.9,1.71-26.18,12.79-51.98,33.28-77.37-34.84,13.98-71.95,19.8-111.38,17.41-39.44-2.37-74.86-12.2-106.27-29.43-20.27-11.87-38.11-26.69-53.57-44.46-15.44-17.79-26.78-37.01-33.94-57.67C.95,466.71-1.47,445.05,.86,422.41c2.32-22.66,11.24-44.06,26.77-64.22,23.98-30.37,56.58-50.89,97.81-61.6,41.21-10.69,85.29-15.32,132.24-13.86,46.93,1.45,93.21,6.49,138.83,15.1,45.59,8.62,84.4,16.76,116.35,24.42l49.8-70.35c16.15-22.82,27.43-45.35,33.85-67.62,6.4-22.25,5.12-44.65-3.83-67.2-8.99-22.54-29.63-45.27-62.01-68.19-20.76-14.7-41.73-24.22-62.9-28.64-21.18-4.4-41.31-3.69-60.38,2.12-19.08,5.83-36.23,16.41-51.47,31.79-15.26,15.36-27.33,35.5-36.19,60.36l-68.48-48.48C291.85,26.26,339.39,4.45,393.83,.61c54.4-3.84,104.46,10.4,150.12,42.72,34.87,24.68,59.95,50.84,75.26,78.51,15.3,27.65,22.9,56.11,22.8,85.29-.12,29.21-6.89,58.99-20.28,89.38-13.42,30.39-30.99,60.94-52.73,91.65l-223.88,316.27c-5.29,7.47-10.03,15.04-14.18,22.67-4.18,7.64-1.69,14.69,7.45,21.16,14.69,9.15,30.11,9.81,46.29,1.93,16.15-7.87,27.81-18.63,34.97-32.25l9.96,7.05Zm76.18-392.79c-29.24-4.49-62.68-9.15-100.35-14.03-37.68-4.86-75.17-6.48-112.45-4.84-37.31,1.63-72.49,8.21-105.53,19.69-33.07,11.49-60.01,31.06-80.79,58.69-12.6,16.02-20.76,33.29-24.52,51.8-3.78,18.53-3.57,36.73,.59,54.62,4.15,17.89,11.72,34.47,22.73,49.74,10.99,15.25,25.37,27.94,43.17,38.03,24.99,13.95,53.67,20.56,86.01,19.76,32.32-.78,63.35-8.1,93.1-21.94l178.05-251.52Z"/></svg>