<?xml version="1.0" encoding="utf-8"?>
<!-- Generator: Adobe Illustrator 26.3.1, SVG Export Plug-In . SVG Version: 6.00 Build 0)  -->
<svg version="1.1" id="Livello_1" xmlns="http://www.w3.org/2000/svg" xmlns:xlink="http://www.w3.org/1999/xlink" x="0px" y="0px"
	 viewBox="0 0 1060.6 1049.4" style="enable-background:new 0 0 1060.6 1049.4;" xml:space="preserve">
<style type="text/css">
	.st0{fill:#FFFFFF;}
</style>
<path id="Raggruppa_95_00000094609368536556334220000012310542341861504898_" transform="translate(0 0)" class="st0" d="
	M614.1,187.5c-0.4,2.9-1.8,5.6-3.9,7.6c-2.1,2.1-5.1,3.2-8.1,2.8c-5.4-0.8-8.9-2.9-10.4-6.4c-1.6-3.9-1.9-8.1-0.9-12.2
	c-3.6,4.2-8.1,7.5-13.2,9.7c-4.9,2.3-10.3,3.4-15.7,3.3c-3.4-0.2-6.7-0.9-9.9-2.2c-3.1-1.2-5.8-2.9-8.2-5.2
	c-2.3-2.2-4.1-4.9-5.3-7.9c-1.2-3.2-1.5-6.7-0.8-10.1c1.1-5.6,4.1-10.7,8.5-14.5c4.8-4.3,10.3-7.9,16.1-10.6
	c6.1-2.9,12.4-5.4,18.9-7.3c6.5-1.9,12-3.5,16.6-4.6c0.6-4.2,1.2-8.4,1.7-12.4c0.6-3.6,0.5-7.4-0.2-11c-0.7-3.3-2.4-6.3-5-8.4
	c-2.7-2.3-6.9-3.9-12.6-4.7c-3.3-0.5-6.8-0.4-10,0.5c-2.9,0.8-5.5,2.2-7.6,4.3c-2.1,2.1-3.7,4.7-4.5,7.5c-1,3.3-1.2,6.8-0.6,10.2
	l-12.1-1.7c2.3-7.5,7.3-13.9,14-18c6.6-4.1,14.5-5.7,22.2-4.5c6.1,0.9,11.1,2.6,15,5.1c3.7,2.4,6.6,5.6,8.6,9.5
	c2,4,3.1,8.4,3.4,12.9c0.3,5.1,0.1,10.3-0.7,15.3l-7.7,55.7c-0.2,1.3-0.3,2.6-0.3,3.9c0,1.3,0.8,2,2.4,2.2c2.4,0.2,4.7-0.8,6.1-2.8
	c1.5-1.9,2.3-4.1,2.4-6.5L614.1,187.5z M597.7,131.8c-4.1,1.4-8.7,3-13.9,4.9c-5.1,1.9-10.1,4.2-14.8,6.9c-4.5,2.6-8.7,5.8-12.3,9.6
	c-3.4,3.6-5.7,8.1-6.5,13c-0.6,2.8-0.5,5.6,0.3,8.3c0.7,2.6,2,5,3.7,7c1.7,2,3.9,3.7,6.3,4.9c2.5,1.3,5.3,1.9,8.1,2
	c4.4,0.1,8.6-1,12.4-3.2c4.1-2.3,7.7-5.3,10.5-9.1L597.7,131.8z M782,169.7c0.4,0.2,0.6,0.8,0.3,1.2c-0.2,0.4-0.8,0.6-1.2,0.3l0,0
	l-3.7-2.1c-1.4-0.8-2.8-1.5-4.3-2.1c-1.3-0.6-2.7-1-4.1-1.3c-1-0.3-2.2-0.1-3,0.6l-80.3,68.1l14.9-104.6c0.2-1.5-0.3-3.1-1.6-4
	c-1.6-1.2-3.3-2.3-5.1-3.2c-0.4-0.2-0.6-0.8-0.4-1.2s0.8-0.6,1.2-0.4c0,0,0,0,0,0l27.5,15.3c0.4,0.2,0.6,0.8,0.3,1.2
	c-0.2,0.4-0.8,0.6-1.2,0.3l0,0l-3.3-1.8c-1-0.6-2.1-1-3.2-1.4c-0.8-0.3-1.7-0.4-2.5-0.3c-0.7,0.1-1.2,0.6-1.2,1.3l-12.2,85.1
	l65.2-55.5c0.7-0.6,0.7-1.4-0.1-2.3c-0.9-1.1-2-2-3.2-2.8c-1.4-1-3-1.9-4.6-2.8l-4.1-2.3c-0.4-0.2-0.6-0.8-0.3-1.2
	c0.2-0.4,0.8-0.6,1.2-0.3l0,0L782,169.7z M758,277.5c0.4,0.3,0.4,0.9,0.1,1.2c-0.3,0.4-0.9,0.4-1.2,0.1l0,0l-24.7-20.9
	c-0.4-0.2-0.5-0.7-0.2-1.1c0-0.1,0.1-0.1,0.1-0.2c0.4-0.4,0.9-0.4,1.4,0c1.7,1.4,3.4,2.8,5,4c1.7,1.2,3.1,1.4,4.3,0.4l57.3-67.6
	c1.1-1.4,1-2.8-0.5-4.4c-1.6-1.7-3.3-3.3-5.1-4.8c-0.4-0.3-0.4-0.9-0.1-1.2c0.3-0.4,0.9-0.4,1.2-0.1l17.1,14.5l-60.3,71.2
	c-1.1,1.2-0.8,2.6,0.7,4.2C754.6,274.5,756.2,276,758,277.5 M820.9,169.7c-0.3-2.2,0.5-4.5,2-6.1c2.9-3.5,8.2-4,11.7-1.1
	c0,0,0.1,0.1,0.1,0.1c3.5,2.9,4,8.2,1.1,11.7c0,0.1-0.1,0.1-0.1,0.1c-1.4,1.7-3.5,2.8-5.7,3c-2.2,0.1-4.4-0.6-6.1-2
	C822.2,174,821.1,171.9,820.9,169.7 M823.6,355c0.5,0.6,0.5,1.1,0,1.4s-0.9,0.3-1.4-0.3l-19.9-25.2c-0.3-0.4-0.2-0.9,0.1-1.2
	c0.4-0.3,0.9-0.2,1.2,0.1c1.4,1.8,2.9,3.5,4.4,5.1c1.5,1.5,2.9,1.8,4.3,0.7l48.4-38.1c3.2-2.5,6.1-5.2,8.8-8.2
	c2.5-2.7,4.4-5.7,5.8-9.1c1.3-3.1,1.7-6.5,1.2-9.9c-0.4-3.4-2.1-7-5-10.7c-4-5-9.1-9-14.9-11.7c-5.8-2.9-12.4-4-18.9-3.2L778,291.9
	c-1.4,1.1-1.5,2.6-0.4,4.4c1.3,2,2.6,3.9,4.1,5.7c0.3,0.4,0.2,0.9-0.1,1.2c-0.4,0.3-0.9,0.2-1.2-0.1l0,0l-20.2-25.6
	c-0.3-0.4-0.2-0.9,0.1-1.2c0.4-0.3,0.9-0.2,1.2,0.1l0,0c1.4,1.8,3,3.6,4.6,5.3c1.5,1.5,2.9,1.8,4.3,0.7l69.2-54.6
	c1.3-1,1.3-2.4,0.2-4.2c-1.3-2-2.6-3.9-4.1-5.7c-0.3-0.4-0.2-0.9,0.1-1.2c0.4-0.3,0.9-0.2,1.2,0.1l13.9,17.6l-10.6,8.4
	c6.2-0.1,12.4,1.3,18,4c5.7,2.8,10.7,6.8,14.5,11.8c7,8.9,10.3,17.5,9.7,25.7c-0.6,8.2-5.4,15.8-14.3,22.8L820,345.1
	c-1.4,1.1-1.5,2.6-0.4,4.4C820.9,351.4,822.2,353.2,823.6,355 M850.1,397.8c-3.7,0-7.4-0.8-10.8-2.5c-3.4-1.6-6.1-4.4-7.7-7.9
	c-2.7-5.6-3.3-10.4-1.8-14.4s5.6-7.6,12.6-10.9l70.3-33.7l-6.8-14.2l1.6-0.8l6.8,14.2l21.6-10.3l5.3,11l-21.6,10.3l9.7,20.2
	l-1.6,0.8l-9.7-20.2l-70.1,33.6l-4.7,2.3c-1.9,0.9-3.7,2-5.5,3.2c-1.5,1.1-2.9,2.4-4,3.9c-1,1.2-1.1,2.9-0.4,4.3
	c1.4,3,3.9,5.5,7,6.9c2.9,1.4,5.9,2.3,9.1,2.6L850.1,397.8z M871.7,473.8c-2.8,0.8-5.8,0.5-8.5-0.6c-2.8-1.1-4.9-3.5-5.7-6.4
	c-1.4-5.3-0.8-9.3,1.9-12.1c3-2.9,6.8-4.9,10.9-5.5c-5.3-1.7-10-4.6-14-8.4c-4-3.7-7.1-8.2-9.1-13.2c-1.1-3.2-1.8-6.6-1.8-9.9
	c-0.1-3.3,0.4-6.5,1.6-9.6c1.1-3,2.9-5.7,5.2-7.9c2.5-2.4,5.6-4,9-4.7c5.6-1.1,11.5-0.3,16.6,2.2c5.8,2.8,11.2,6.4,16,10.8
	c5.1,4.5,9.8,9.4,14.1,14.6c4.3,5.2,7.8,9.7,10.7,13.6l12.1-3.2c3.6-0.9,7-2.4,10.1-4.4c2.8-1.9,4.8-4.6,5.8-7.8
	c1.1-3.3,0.9-7.8-0.6-13.4c-0.8-3.3-2.3-6.4-4.3-9.1c-1.8-2.4-4.2-4.2-6.9-5.4c-2.7-1.1-5.7-1.6-8.7-1.3c-3.4,0.4-6.7,1.5-9.7,3.4
	l-3.1-11.8c7.8-0.8,15.6,1.4,22,6c6.3,4.5,10.9,11.2,12.8,18.7c1.6,6,1.9,11.3,1.1,15.8c-0.8,4.3-2.6,8.3-5.4,11.6
	c-2.9,3.4-6.5,6.1-10.6,8.1c-4.6,2.2-9.4,4-14.4,5.3l-54.4,14.4c-1.3,0.3-2.5,0.7-3.7,1.2c-1.2,0.5-1.6,1.5-1.1,3.1
	c0.7,2.3,2.6,4.1,5,4.5c2.3,0.6,4.7,0.5,6.9-0.3L871.7,473.8z M916.8,437.1c-2.8-3.2-6.1-6.9-9.9-10.9c-3.7-4-7.7-7.7-12.1-11
	c-4.1-3.2-8.7-5.8-13.6-7.6c-4.6-1.8-9.7-2.1-14.5-1c-2.8,0.5-5.3,1.7-7.6,3.5c-2.1,1.7-3.8,3.8-5,6.1c-1.2,2.4-1.9,5-2.1,7.7
	c-0.2,2.8,0.2,5.6,1.3,8.3c1.6,4,4.3,7.6,7.7,10.2c3.7,2.9,7.9,5,12.4,6.2L916.8,437.1z M844.2,566.8c-7.1,1.3-13.2,1-18.4-1
	c-5-1.9-9.5-5-13.1-9c-3.7-4.2-6.4-9.2-8-14.6c-1.8-5.8-2.8-11.8-2.8-17.9c-0.1-5.3,0.5-10.6,1.7-15.8c1.1-5.1,3.1-10,5.7-14.5
	c2.5-4.3,6-8,10-10.8c4.3-2.9,9.3-4.6,14.5-4.9L823,462.5c-0.3-0.6-0.2-1,0.2-1.1c0.4-0.5,0.8-0.4,1.1,0.2l43.6,63.8
	c1.4-4.9,2.6-9.9,3.5-15.1c0.9-4.8,2-9.6,3.5-14.2c1.1-3.8,2.9-7.4,5.4-10.6c2.5-3.2,6.1-4.9,10.8-4.9c3.3-0.2,6.5,1.3,8.6,3.8
	c2.2,2.6,3.8,5.6,4.9,8.8c2.5-4.8,6.1-8.9,10.6-12c4.5-3.2,9.8-5,15.3-5c5.1-0.2,10.2,1.1,14.6,3.8c4.1,2.6,7.6,5.9,10.2,9.9
	c2.8,4.1,4.8,8.7,6.1,13.5c1.3,4.8,2,9.8,2.1,14.8c-0.1,0.9-0.2,1.8-0.1,2.7c0.1,0.9,0.1,1.8-0.1,2.7c0.6,6.6,1.2,13.1,2.1,19.5
	c0.9,6.4,2.1,12.8,3.9,19l-12.2,0.2c1.1-4.4,2-8.8,2.6-13.2c0.6-4.5,1.1-9,1.4-13.4c-0.8,3.4-2.1,6.6-3.9,9.6c-1.8,3-4,5.7-6.5,8.1
	c-2.5,2.4-5.4,4.3-8.6,5.7c-3.2,1.4-6.7,2.1-10.3,2.2c-5,0.2-10-1.1-14.4-3.6c-4.1-2.5-7.6-5.9-10.2-9.9c-2.8-4.1-4.8-8.7-6.1-13.5
	c-1.3-4.8-2-9.7-2.1-14.7c-0.1-3.6,0.2-7.2,0.7-10.8c0.5-3.6,1.4-7.2,2.7-10.6c0.2-3.7-0.7-7.4-2.7-10.5c-0.9-1.5-2.2-2.7-3.6-3.7
	c-1.6-1-3.4-1.4-5.2-1.4c-1.9,0-3.7,0.5-5.3,1.4c-1.5,0.9-2.7,2.1-3.7,3.5c-1,1.4-1.8,3-2.3,4.7c-0.5,1.6-0.9,3.3-1.1,5
	c-0.9,6.4-1.7,13.3-2.3,20.9c-0.6,7.3-1.9,14.5-4,21.6c-1.9,6.5-5.1,12.6-9.5,17.8C858.5,562.1,852.3,565.3,844.2,566.8 M803.6,524
	c0,4.8,1.2,9.6,3.3,13.9c2,4.1,4.9,7.7,8.4,10.6c3.5,2.9,7.6,4.9,12.1,6c4.8,1.2,9.8,1.3,14.6,0.3c3.4-0.5,6.7-1.8,9.6-3.6
	c2.7-1.7,5.1-3.8,7.1-6.2c2.1-2.4,3.8-5.2,5.1-8.1c1.4-3,2.5-6.2,3.5-9.4l-32.5-47.6c-5.2-0.1-10.2,1.4-14.6,4.2
	c-4,2.7-7.3,6.3-9.7,10.5c-2.6,4.4-4.4,9.1-5.4,14C804.1,513.8,803.6,518.9,803.6,524 M930.7,488.2c-3.9,0.1-7.8,0.9-11.4,2.6
	c-3.5,1.6-6.8,3.9-9.5,6.7c-2.8,2.8-5,6.1-6.6,9.7c-1.6,3.7-2.4,7.7-2.4,11.8c0.1,4,1,7.9,2.7,11.5c1.7,3.6,4.1,6.9,6.9,9.6
	c2.8,2.7,6.1,4.9,9.7,6.5c3.6,1.6,7.5,2.3,11.4,2c4,0.1,7.9-0.7,11.5-2.4c3.6-1.6,6.9-4,9.6-6.8c2.8-2.9,5-6.2,6.6-9.9
	c1.6-3.6,2.4-7.6,2.4-11.6c0-4.1-1-8-2.7-11.7c-1.7-3.6-4-6.8-6.9-9.5c-2.9-2.7-6.2-4.9-9.9-6.4
	C938.6,488.9,934.7,488.2,930.7,488.2 M896.3,662.8l17.2-66.5c-5.8-2.1-11.8-3.8-17.8-5c-6.1-1.3-12.4-1.6-18.6-1
	c-5.7,0.5-11.2,2.5-15.9,5.7c-4.6,3.2-7.9,8.3-9.7,15.3c-2.3,8.9-1.7,16,1.9,21.5c3.5,5.5,9.6,8.7,18.2,9.7l-5.8,10.2
	c-3.3-2.7-6.4-5.6-9.2-8.7c-2.5-2.7-4.6-5.9-6.1-9.2c-1.5-3.4-2.3-7-2.4-10.7c-0.1-4.5,0.5-9,1.7-13.3c1.6-6.9,5.2-13.2,10.4-18
	c4.9-4.6,10.9-7.9,17.3-9.8c6.7-2,13.7-2.7,20.6-2.2c7,0.4,13.8,1.9,20.4,4.4c5.4,1.8,10.5,4.5,15.1,7.9c4.3,3.2,8,7.3,10.9,11.9
	c2.8,4.6,4.7,9.6,5.5,14.9c0.9,5.7,0.5,11.6-1,17.1c-1.3,5.7-3.9,10.9-7.5,15.4c-3.2,3.9-7.3,7-11.9,9c-4.8,2.1-9.9,3.2-15,3.3
	c-5.6,0.2-11.2-0.4-16.6-1.7L896.3,662.8z M947.3,636.6c1.5-5.7,1.5-10.7,0.1-15c-1.4-4.2-3.8-8-7-11.1c-3.4-3.2-7.3-6-11.5-8
	c-4.4-2.2-9-4.1-13.6-5.8L901,651.7c4.4,2.5,9.2,4.3,14.2,5.4c4.5,1,9.1,1,13.5-0.2c4.3-1.1,8.2-3.4,11.3-6.6
	C943.3,647,945.7,642.5,947.3,636.6 M723.5,811.4c-0.5,0.5-1,0.6-1.4,0.2c-0.4-0.2-0.5-0.7-0.2-1.1c0-0.1,0.1-0.1,0.1-0.2l21.6-24
	c0.3-0.4,0.9-0.4,1.3-0.1c0.4,0.3,0.4,0.9,0.1,1.3c-1.5,1.6-2.9,3.3-4.1,4.9c-1.3,1.6-1.5,3.1-0.6,4.3l46,41.4
	c2.9,2.6,6.1,5,9.4,7.1c3.1,2,6.5,3.4,10.1,4.2c3.4,0.7,6.9,0.6,10.3-0.3c3.8-1.2,7.2-3.4,9.7-6.5c4.6-5.1,7.8-11.3,9.2-18.1
	c1.4-6.4,1-13.2-1.2-19.4c-2-0.8-4-1.8-5.8-3c-2-1.3-3.8-2.7-5.6-4.3L777,756.6c-1.3-1-2.8-0.7-4.4,0.7c-1.7,1.5-3.3,3.1-4.8,4.8
	c-0.3,0.4-0.9,0.4-1.3,0.1c-0.4-0.3-0.4-0.9-0.1-1.3l0,0l21.6-24c0.3-0.4,0.9-0.4,1.3-0.1c0.4,0.3,0.4,0.9,0.1,1.3l0,0
	c-1.5,1.6-2.9,3.3-4.1,4.9s-1.5,3.1-0.6,4.3l45.8,41.5c2.9,2.6,6.1,5,9.4,7.1c3.1,2,6.5,3.4,10.1,4.2c3.4,0.7,6.9,0.6,10.3-0.3
	c3.8-1.2,7.2-3.4,9.7-6.5c4.1-4.5,7.1-9.9,8.7-15.7c1.7-5.6,1.9-11.6,0.7-17.3L821,707.7c-1.2-1.1-2.6-0.9-4.2,0.5
	c-1.7,1.5-3.3,3.1-4.8,4.8c-0.3,0.4-0.9,0.4-1.3,0.1c-0.4-0.3-0.4-0.9-0.1-1.3l0,0l21.5-23.9c0.3-0.4,0.9-0.4,1.3-0.1
	c0.4,0.3,0.4,0.9,0.1,1.3c-1.5,1.6-2.9,3.3-4.1,4.9c-1.3,1.6-1.5,3.1-0.6,4.3L895,758c1.4,0.9,2.8,0.6,4.3-0.8
	c1.6-1.5,3-3.1,4.4-4.9c0.4-0.4,0.9-0.4,1.4,0.1c0.4,0.2,0.5,0.7,0.2,1.1c0,0.1-0.1,0.1-0.1,0.2l-14.8,16.5l-8.7-7.9
	c0.5,5.8,0,11.6-1.7,17.1c-1.7,5.6-4.6,10.8-8.5,15.1c-4.5,5.2-10.2,9.1-16.7,11.3c-5.9,1.9-12.3,2-18.3,0.1
	c1.4,6.6,1.4,13.4-0.1,20c-1.5,6.7-4.7,12.9-9.3,18c-7,7.8-14.9,12-23.8,12.7s-17.2-2.5-25-9.5l-45.6-41.1c-1.3-1-2.7-0.8-4.3,0.6
	C726.6,808.2,725,809.7,723.5,811.4 M715.4,918.3c-6.1,3-12.8,4.6-19.7,4.9c-6.7,0.3-13.4-0.7-19.8-2.8c-6.4-2.1-12.3-5.4-17.4-9.7
	c-5.3-4.3-9.5-9.8-12.4-15.9c-3-6.2-4.6-12.9-4.8-19.8c-0.2-6.7,0.9-13.3,3.3-19.6c2.3-6.3,5.8-12.1,10.2-17.2
	c4.5-5.2,10.1-9.4,16.3-12.4c6.1-3,12.8-4.6,19.7-4.9c6.7-0.3,13.4,0.7,19.8,2.8c6.4,2.1,12.3,5.5,17.5,9.8
	c10.6,8.9,16.8,21.8,17.2,35.6c0.2,6.7-0.9,13.3-3.3,19.6c-2.4,6.3-5.8,12.2-10.3,17.2C727.1,911.2,721.6,915.4,715.4,918.3
	 M671.9,827.4c-5.5,2.5-10.2,6.4-13.6,11.4c-3.2,4.8-5.3,10.2-6.2,15.8c-0.9,5.9-0.9,11.9,0,17.8c0.9,5.9,2.6,11.6,5.2,16.9
	c2.6,5.3,5.8,10.1,9.8,14.5c3.9,4.5,8.6,8.2,13.8,11.1c5,2.8,10.6,4.5,16.3,5.1c6,0.5,12.1-0.6,17.5-3.3c5.5-2.5,10.2-6.4,13.6-11.4
	c3.2-4.8,5.3-10.2,6.3-15.8c1-5.9,1.1-11.9,0.1-17.7c-0.9-5.9-2.6-11.6-5.2-16.9c-2.6-5.4-6-10.5-10.1-14.9c-4-4.5-8.7-8.2-13.9-11
	c-5-2.7-10.5-4.4-16.2-4.9C683.3,823.5,677.3,824.7,671.9,827.4 M522.4,866.1c-0.5,0.1-0.9-0.3-1-0.8c-0.1-0.5,0.3-0.9,0.8-1l0,0
	l22-3l3,22c1.2-7.3,4.7-14.1,9.9-19.4c5.2-5.1,12-8.4,19.3-9.2c6.5-1,13.2-0.4,19.4,1.9c5.6,2.2,10.7,5.6,14.9,9.9
	c4.2,4.5,7.7,9.6,10.1,15.3c2.6,5.7,4.3,11.8,5.1,18c0.9,6.3,0.8,12.6-0.1,18.9c-0.9,6.1-2.8,12-5.8,17.5
	c-2.9,5.3-6.9,9.8-11.8,13.4c-5.4,3.8-11.6,6.1-18.2,6.8c-7.2,1.2-14.6-0.2-21-3.7c-6.3-3.7-11.4-9.2-14.6-15.8l10.1,74.2
	c0.2,1.6,1.4,2.4,3.4,2.3c2.3-0.1,4.6-0.3,6.9-0.6c0.5-0.1,0.9,0.3,1,0.8s-0.3,0.9-0.8,1l-22,3l-20.5-149.7
	c-0.2-1.6-1.4-2.4-3.4-2.3C527,865.6,524.7,865.8,522.4,866.1 M553.5,930c2.6,8.1,6.8,14.6,12.7,19.4s13.2,6.6,22,5.4
	c6.6-0.9,11.7-3.2,15.5-6.9c3.8-3.7,6.6-8.3,8.2-13.3c1.8-5.3,2.8-10.9,2.9-16.5c0.4-11.1-1.1-22.2-4.5-32.8
	c-1.6-5.4-4-10.5-7.1-15.2c-2.9-4.4-6.8-8.1-11.4-10.7c-4.6-2.7-10.1-3.5-16.6-2.7c-8.8,1.2-15.4,4.9-19.9,11.1s-6.9,13.7-7.2,22.3
	L553.5,930z M432.2,906.9l68,9.5c1.4-6,2.4-12.1,2.9-18.3c0.6-6.2,0.2-12.5-1.1-18.6c-1.2-5.6-3.7-10.8-7.5-15.1
	c-3.7-4.2-9.2-6.9-16.4-7.9c-9.1-1.3-16.1,0.2-21.2,4.3c-5.1,4.1-7.6,10.5-7.6,19.2l-10.8-4.6c2.3-3.6,4.8-6.9,7.6-10.1
	c2.4-2.8,5.3-5.2,8.5-7.1c3.2-1.8,6.7-3.1,10.3-3.6c4.5-0.6,9-0.5,13.4,0.2c7,0.8,13.7,3.7,19.1,8.2c5.1,4.4,9.1,9.9,11.7,16.1
	c2.7,6.4,4.3,13.3,4.6,20.2c0.4,7-0.3,14-2,20.8c-1.2,5.6-3.2,11-6.1,15.9c-2.7,4.7-6.3,8.8-10.5,12.2c-4.2,3.3-9,5.8-14.2,7.2
	c-5.6,1.5-11.4,1.9-17.1,1c-5.8-0.7-11.3-2.6-16.2-5.7c-4.2-2.8-7.8-6.5-10.3-10.8c-2.6-4.5-4.3-9.4-5-14.6
	c-0.8-5.5-0.9-11.1-0.2-16.7L432.2,906.9z M464.1,954.5c5.9,0.8,10.8,0.3,14.9-1.6c4-1.9,7.5-4.7,10.2-8.2c2.8-3.8,5.1-7.9,6.6-12.4
	c1.7-4.6,3.1-9.4,4.2-14.2l-56.2-7.8c-2,4.7-3.2,9.6-3.7,14.7c-0.5,4.6,0.1,9.2,1.7,13.4c1.6,4.1,4.3,7.8,7.8,10.5
	C453.3,951.8,458.1,953.6,464.1,954.5 M355.5,899.5c-3.2,3.3-5.2,6.4-6.1,9.2c-0.8,2.4-0.9,5-0.2,7.4c0.8,2.3,2.2,4.3,4.2,5.8
	c2,1.7,4.3,3,6.8,4c4.6,1.8,9.7,1.7,14.3-0.1c4.8-1.7,9.1-4.4,12.8-7.8l27.8-71.2c0.5-1.6-0.2-2.8-2.1-3.8c-2-1-4-1.9-6.1-2.7
	c-0.5-0.2-0.7-0.7-0.5-1.1c0.2-0.5,0.7-0.7,1.1-0.5l29.9,11.7c0.5,0.2,0.7,0.7,0.5,1.1c-0.2,0.5-0.7,0.7-1.1,0.5l0,0
	c-2.2-0.9-4.3-1.6-6.2-2.2c-1.9-0.6-3.3-0.2-4.1,1l-32.2,82.6c-0.6,1.7,0,3,1.8,3.9c2,1,4.2,1.9,6.4,2.6c0.6,0.2,0.7,0.7,0.4,1.4
	c-0.1,0.4-0.5,0.7-0.9,0.6c-0.1,0-0.1,0-0.2-0.1l-20.6-8.1l4.8-12.2c-3.9,3.2-8.5,5.4-13.5,6.5c-5.1,1.1-10.4,0.7-15.2-1.3
	c-3-1.1-5.7-3-7.8-5.4c-1.9-2.3-3.3-4.9-4.1-7.8c-0.9-2.9-1.4-6-1.5-9c-0.1-3.1-0.1-6.2,0.2-9.3L355.5,899.5z M290.8,770.5
	c-0.6-0.4-0.7-0.9-0.4-1.4s0.8-0.5,1.4-0.1l26.1,18.7c0.4,0.3,0.5,0.8,0.2,1.2c-0.3,0.4-0.8,0.5-1.2,0.2c-1.8-1.3-3.7-2.5-5.7-3.7
	c-1.9-1.1-3.3-0.9-4.4,0.6l-35.8,50.1c-2.3,3.3-4.4,6.7-6.1,10.3c-1.6,3.2-2.6,6.8-3,10.4c-0.3,3.4,0.2,6.7,1.6,9.8
	c1.4,3.2,4,6.1,7.8,8.9c5.2,3.7,11.2,6.1,17.5,7.1c6.4,1.1,13,0.4,19-2.2l44.3-62c1-1.4,0.7-2.9-0.9-4.3c-1.8-1.5-3.6-3-5.5-4.3
	c-0.4-0.3-0.5-0.9-0.2-1.2c0.3-0.4,0.8-0.5,1.2-0.2l26.5,18.9c0.4,0.3,0.5,0.8,0.2,1.2c-0.3,0.4-0.8,0.5-1.2,0.2l0,0
	c-1.9-1.4-3.9-2.6-5.9-3.8c-1.9-1.1-3.3-0.9-4.4,0.6l-51.3,71.8c-0.9,1.3-0.6,2.7,1,4.1c1.8,1.5,3.6,3,5.5,4.3
	c0.4,0.3,0.5,0.8,0.2,1.2c-0.3,0.4-0.8,0.5-1.2,0.2l0,0l-18.2-13l7.9-11c-6,1.8-12.3,2.2-18.4,1.2c-6.2-1.1-12.1-3.6-17.3-7.3
	c-9.3-6.6-14.7-13.9-16.4-22c-1.7-8,0.7-16.7,7.4-25.9L297,779c1-1.4,0.7-2.9-0.9-4.3C294.4,773.2,292.6,771.8,290.8,770.5
	 M230,702.9c3.7-0.6,7.4-0.4,11,0.6c3.6,1.1,6.8,3.3,8.9,6.5c3.6,5.1,5,9.7,4.2,13.8c-0.8,4.2-4.3,8.4-10.6,12.9l-63.8,44.9
	l9.1,12.9l-1.4,1l-9.1-12.9l-19.6,13.8l-7-10l19.6-13.8l-12.9-18.3l1.4-1l12.9,18.3l63.6-44.7l4.3-3c1.7-1.2,3.4-2.6,4.8-4.1
	c1.3-1.3,2.5-2.8,3.3-4.5c0.8-1.4,0.6-3-0.3-4.3c-1.9-2.8-4.8-4.7-8-5.6c-3.1-0.9-6.2-1.3-9.4-1.1L230,702.9z M107.3,644.6
	c-0.2-0.5,0-1,0.5-1.2c0.5-0.2,1,0,1.2,0.5l0,0c1,2.3,2.2,5,3.7,8.1c1.5,3.1,3.3,4.8,5.4,5.2l152.9-6.1c2.9-0.1,5.8,0.5,8.5,1.5
	c2.7,1,4.9,3,6.2,5.6c0.9,1.7,1.1,3.6,0.6,5.4c-0.6,1.8-1.6,3.5-2.8,5c-1.3,1.6-2.9,3.1-4.6,4.3c-1.5,1.1-3.1,2.2-4.7,3l-1.2-12.2
	c1,0.9,2.1,1.4,3.4,1.6c1.4,0.3,2.8,0.3,4.2,0c1.2-0.2,2.4-0.7,3.3-1.6c0.9-1,1.2-2.4,0.8-3.7c-0.6-2.7-2.6-5-5.2-5.9
	c-2.6-1-5.3-1.4-8.1-1.3l-47,1.8l-77,73c-1.2,1.1-1.7,2.7-1.3,4.3c0.5,2,1.1,3.9,1.9,5.8c0.2,0.5,0,1-0.5,1.2c-0.5,0.2-1,0-1.2-0.5
	l-12.2-29.5c-0.3-0.7-0.1-1.1,0.4-1.4s1,0,1.2,0.7l1.4,3.4c0.4,1.1,1,2.1,1.6,3c0.5,0.7,1.1,1.4,1.9,1.9c0.7,0.4,1.5,0.2,2-0.4
	l64.5-60.8l-88.7,3.7c-0.8,0-1.2,0.6-1.1,1.9c0.1,1.5,0.4,3,0.9,4.4c0.5,1.7,1.2,3.4,1.9,5.1l1.7,4.2c0.2,0.5,0,1-0.5,1.2
	c-0.5,0.2-1,0-1.2-0.5L107.3,644.6z M255.7,604.7c-0.2-2.3-0.5-4.5-0.9-6.6s-1.4-3.1-3-3l-147,15.1c-1.6,0.2-2.4,1.3-2.4,3.5
	c0,2.3,0.1,4.5,0.4,6.8c0,0.5-0.3,0.9-0.8,1c-0.5,0-0.9-0.3-1-0.8l-2.3-22l21.8-2.2c-7.2-1.5-13.7-5.1-18.8-10.4
	c-5-5.3-8-12.2-8.6-19.5c-0.8-6.5,0-13.2,2.5-19.3c2.3-5.6,5.8-10.5,10.2-14.6c4.5-4.2,9.8-7.5,15.5-9.7c5.9-2.4,12.1-3.9,18.4-4.6
	c6.2-0.6,12.5-0.4,18.7,0.8c6.1,1.1,11.9,3.2,17.2,6.3c5.2,3,9.7,7.1,13.1,12c3.7,5.4,5.9,11.7,6.4,18.3c0.9,7.3-0.6,14.8-4.4,21.2
	c-3.9,6.3-9.7,11.3-16.5,14.2l76.5-7.8c1.4-0.4,2.1-1.7,2.1-3.8c-0.1-2.1-0.2-4.2-0.4-6.4c0-0.5,0.3-0.9,0.8-1c0.5,0,0.9,0.3,1,0.8
	l0,0l3.3,32c0,0.5-0.3,0.9-0.8,1C256.2,605.5,255.8,605.2,255.7,604.7L255.7,604.7 M167.5,591.7c8.4-2.5,15-6.6,20-12.4
	c5-5.8,7-13.1,6.1-21.9c-0.7-6.5-2.8-11.6-6.5-15.5c-3.6-3.8-8.1-6.8-13.1-8.6c-5.3-1.9-10.9-3-16.5-3.3c-11.1-0.8-22.2,0.4-33,3.4
	c-5.4,1.5-10.6,3.7-15.4,6.7c-4.5,2.8-8.3,6.6-11,11.2c-2.7,4.5-3.8,10-3.1,16.5c0.9,8.8,4.4,15.5,10.4,20.2
	c6,4.7,13.4,7.3,22.1,7.9L167.5,591.7z M148.7,416.5l-11.8,67.7c6,1.6,12,2.8,18.2,3.5c6.2,0.8,12.5,0.6,18.6-0.5
	c5.6-1,10.9-3.4,15.4-7c4.4-3.6,7.2-8.9,8.4-16.1c1.6-9,0.4-16.1-3.6-21.3s-10.3-7.9-18.9-8.2l5-10.6c3.5,2.4,6.8,5,9.9,7.9
	c2.7,2.5,5,5.5,6.8,8.7c1.7,3.2,2.8,6.8,3.2,10.5c0.4,4.5,0.2,9-0.6,13.4c-1.1,7-4.1,13.5-8.9,18.8c-4.6,4.9-10.2,8.8-16.5,11.2
	c-6.5,2.5-13.4,3.8-20.4,3.9c-7,0.1-14-0.8-20.7-2.7c-5.6-1.4-10.9-3.6-15.7-6.7c-4.6-2.9-8.6-6.6-11.8-10.9
	c-3.2-4.3-5.4-9.2-6.7-14.4c-1.3-5.6-1.5-11.5-0.4-17.2c0.9-5.7,3-11.2,6.3-16c2.9-4.1,6.7-7.5,11.2-10c4.6-2.4,9.6-4,14.7-4.5
	c5.6-0.6,11.2-0.5,16.7,0.3L148.7,416.5z M121.1,479.2c4.6,1.8,9.3,3.4,14,4.7l9.7-55.9c-4.6-2.1-9.5-3.5-14.6-4.2
	c-4.5-0.6-9.2-0.2-13.5,1.2c-4.2,1.5-7.9,4.1-10.7,7.5c-3,3.5-5,8.3-6.1,14.2 M100,446.7c-1,5.8-0.6,10.8,1.1,14.9
	c1.7,4.1,4.4,7.7,7.8,10.5c3.7,3,7.8,5.3,12.2,7.1 M86.5,305.5l6.9,10c-3.7,0.8-7.2,2.2-10.4,4.3c-3.2,2-5.6,5-7,8.5
	c-1,2.2-0.8,4.7,0.5,6.7c1.6,2.3,3.7,4.2,6.1,5.7c2.9,1.9,6,3.6,9.2,5c3.5,1.5,6.8,2.9,10.1,4.2l24,9.8l8.5-20.9l1.6,0.7l-8.5,20.9
	l84.7,34.5c1.5,0.6,2.8,0,3.8-1.9c1.1-2,2-4,2.9-6.1c0.2-0.5,0.7-0.7,1.2-0.5s0.7,0.7,0.5,1.2l-12.1,29.8c-0.2,0.5-0.7,0.7-1.2,0.5
	s-0.7-0.7-0.5-1.2c0.9-2.1,1.6-4.2,2.2-6.4c0.6-2.1,0.1-3.4-1.4-4L123,371.6l-5.9,14.4l-1.6-0.7l5.9-14.4L98,361.4
	c-3.3-1.3-6.8-2.9-10.4-4.7c-3.5-1.7-6.7-4.1-9.4-6.9c-2.7-3-4.4-6.6-5-10.5c-0.8-4.2,0.1-9.4,2.6-15.6c0.8-1.9,1.7-3.7,2.7-5.5
	c1-1.7,2.1-3.5,3.1-5.3L86.5,305.5z M259.8,302.2c2.5,1.6,4.3,4,5.2,6.8c1,2.8,0.7,6-1,8.5c-3,4.6-6.4,6.8-10.2,6.7
	c-4.2-0.3-8.2-1.8-11.4-4.4c2.2,5.1,3.3,10.6,3.1,16.1c-0.1,5.4-1.3,10.7-3.7,15.6c-1.6,3-3.7,5.7-6.2,8c-2.4,2.2-5.2,4-8.2,5.2
	c-3,1.1-6.2,1.6-9.4,1.4c-3.4-0.3-6.7-1.5-9.5-3.6c-4.6-3.4-7.9-8.3-9.4-13.9c-1.8-6.2-2.7-12.7-2.7-19.1c0-6.8,0.5-13.5,1.5-20.2
	c1-6.7,2-12.3,3-17l-10.5-6.9c-3-2.1-6.4-3.6-10-4.6c-3.3-0.8-6.7-0.5-9.7,0.9c-3.2,1.4-6.4,4.5-9.6,9.3c-1.9,2.8-3.2,5.9-3.8,9.3
	c-0.5,2.9-0.3,5.9,0.6,8.8c1,2.8,2.7,5.3,4.9,7.3c2.6,2.3,5.6,4,8.9,5l-6.7,10.2c-5.8-5.3-9.4-12.6-10.2-20.4
	c-0.9-7.7,1.1-15.6,5.5-22c3.4-5.2,7.1-9,11-11.3c3.7-2.3,7.9-3.6,12.3-3.7c4.5-0.1,8.9,0.8,13.1,2.5c4.8,1.9,9.3,4.4,13.6,7.2
	l47,30.9c1.1,0.7,2.2,1.4,3.4,1.9c1.1,0.6,2.1,0.2,3-1.2c1.3-2.1,1.3-4.6,0.1-6.7c-1-2.1-2.7-3.8-4.9-4.9L259.8,302.2z M202.5,293
	c-0.5,4.3-1,9.1-1.5,14.6c-0.5,5.4-0.6,10.9-0.1,16.3c0.4,5.2,1.5,10.3,3.4,15.2c1.7,4.6,4.9,8.6,8.9,11.4c2.3,1.7,4.9,2.8,7.6,3.3
	c2.6,0.5,5.3,0.3,7.9-0.4c2.6-0.7,5-1.9,7.1-3.5c2.2-1.7,4-3.9,5.3-6.5c1.9-3.9,2.8-8.2,2.4-12.6c-0.3-4.7-1.5-9.2-3.6-13.4
	L202.5,293z M304.3,274.2c3.1-2.8,5.7-5.9,7.9-9.4c2-3.2,3.4-6.8,4-10.6c1.3-7.8-1.4-15.8-7.3-21l10.8-5.6c2.9,10,3.1,18.7,0.7,26.3
	c-2.4,7.6-7.4,14.8-14.9,21.7c-4.8,4.5-10.7,7.9-17,9.8c-6.1,1.8-12.4,2.5-18.7,1.8c-6.4-0.7-12.6-2.6-18.2-5.6
	c-5.9-3.1-11.2-7.2-15.7-12.1c-4.5-4.9-8-10.5-10.5-16.6c-2.4-5.9-3.7-12.2-3.8-18.6c-0.1-6.3,1.1-12.6,3.5-18.5
	c2.5-6.1,6.4-11.6,11.3-16c7.5-6.9,15.2-11.1,22.9-12.8c7.8-1.7,16.5-0.6,26.1,3.2l-6.6,10.2c-4.7-6.4-12.4-9.9-20.3-9.3
	c-3.8,0.3-7.5,1.3-10.9,3c-3.7,1.8-7.1,4.2-10.1,7c-5,4.6-8.2,9.5-9.4,14.9c-1.2,5.3-1.3,10.8,0,16.1c1.3,5.5,3.5,10.8,6.5,15.7
	c6,9.8,13.8,18.4,23.1,25.3c4.5,3.5,9.6,6.1,15,7.9c5.1,1.6,10.6,2.1,15.9,1.4C294.1,281.5,299.3,278.8,304.3,274.2 M387,156.6
	l-61.2,31.1c2.2,5.8,5,11.3,8.1,16.6c3.1,5.4,7,10.4,11.5,14.6c4.2,3.9,9.3,6.7,14.8,8.1c5.5,1.4,11.5,0.4,17.9-2.9
	c8.2-4.1,13.1-9.4,14.9-15.7c1.8-6.3,0.2-13-4.7-20.1l11.5-2.4c0.2,4.2,0,8.4-0.4,12.6c-0.4,3.7-1.4,7.3-2.9,10.7
	c-1.6,3.3-3.7,6.3-6.4,8.9c-3.3,3-7.1,5.5-11.1,7.5c-6.2,3.4-13.3,4.8-20.4,4.1c-6.7-0.7-13.1-2.9-18.8-6.5
	c-5.9-3.7-11.1-8.4-15.3-14c-4.3-5.5-7.7-11.6-10.2-18.2c-2.2-5.3-3.6-10.9-4.1-16.6c-0.5-5.4,0.1-10.8,1.7-16
	c1.6-5.1,4.1-9.9,7.5-14c3.7-4.4,8.3-8,13.5-10.6c5.1-2.8,10.8-4.3,16.6-4.6c5.1-0.1,10.1,0.9,14.7,3c4.7,2.2,8.9,5.3,12.4,9.1
	c3.8,4.1,7.1,8.6,9.7,13.6L387,156.6z M333.7,135.7c-5.3,2.7-9,6-11.3,9.8c-2.2,3.8-3.5,8.1-3.7,12.6c-0.2,4.7,0.4,9.4,1.6,14
	c1.3,4.8,2.8,9.5,4.6,14l50.6-25.7c-1.1-5-2.9-9.8-5.3-14.2c-2.2-4-5.3-7.5-9.1-10.1c-3.7-2.5-8-3.9-12.4-4.1
	C344.1,131.8,339.1,133,333.7,135.7 M472.4,134.2c-5.6,0.9-10.8-2.9-11.7-8.5c0-0.1,0-0.3-0.1-0.4c-0.4-2.8,0.2-5.6,1.9-7.9
	c1.6-2.3,4.1-3.8,6.9-4.1c2.8-0.4,5.6,0.3,7.8,2c2.3,1.6,3.9,4.2,4.2,7c0.4,2.8-0.3,5.6-2.2,7.8
	C477.6,132.4,475.1,133.8,472.4,134.2"/>
</svg>
