<?xml version="1.0" encoding="UTF-8"?><svg id="Livello_1" xmlns="http://www.w3.org/2000/svg" viewBox="0 0 808.16 911.34"><defs><style>.cls-1{fill:#efefee;}</style></defs><path class="cls-1" d="M495.09,852.14c-7.56,11.34-17.03,22.06-28.37,32.15-11.36,10.09-23.16,17.49-35.45,22.22-12.29,4.73-25.22,5.98-38.77,3.78-13.56-2.21-26.64-9.61-39.24-22.21-11.35-11.35-18.91-24.29-22.69-38.77-3.79-14.49-5.52-29.46-5.2-44.91,.31-15.44,1.88-30.89,4.73-46.33,2.82-15.44,4.87-30.11,6.15-43.97-48.55,.62-96.3-8.66-143.25-27.9-46.95-19.23-87.78-46.18-122.44-80.84-23.96-23.96-41.93-51.38-53.89-82.26C4.67,492.21-.85,460.53,.11,428.07c.93-32.46,8.04-63.82,21.28-94.08,13.24-30.25,33.09-56.73,59.57-79.43,27.73-25.21,58.15-44.91,91.25-59.09s67.28-23.49,102.59-27.89c35.29-4.42,71.06-4.58,107.32-.47,36.24,4.09,71.69,12.13,106.37,24.11,8.19-17.02,17-34.35,26.47-52,9.44-17.66,19.84-34.35,31.2-50.11,11.33-15.76,23.79-30.4,37.35-43.97,13.55-13.55,29.15-24.75,46.8-33.57,24.57-11.98,49.94-14.65,76.11-8.04,26.15,6.62,48.7,19.38,67.61,38.29,19.53,19.53,30.71,43.66,33.56,72.33,2.82,28.68-4.58,54.36-22.21,77.06-15.15,20.16-33.26,34.2-54.37,42.07-21.12,7.89-43.18,11.98-66.19,12.29-23.02,.32-46.51-2.37-70.44-8.04-23.96-5.67-46.03-12.29-66.18-19.85-27.75,80.69-50.12,159.79-67.13,237.32-17.02,77.53-34.37,157.9-52,241.11,39.7-8.2,76.1-23.8,109.21-46.8,33.08-23.01,63.18-49.33,90.29-78.95,32.77-37.82,63.34-77.84,91.72-120.08l45.39,43.5c-20.82,14.49-40.99,29.31-60.52,44.44-19.56,15.13-39.09,31.2-58.62,48.22-31.53,28.99-65.57,54.22-102.12,75.64-36.56,21.44-75.96,36.26-118.19,44.44-6.32,26.47-11.03,50.75-14.18,72.81-2.53,20.17-3.96,39.24-4.26,57.2-.33,17.97,2.98,30.41,9.93,37.35,6.3,6.3,13.7,9.29,22.22,8.98,8.5-.31,16.84-2.36,25.06-6.15,8.18-3.78,16.06-8.82,23.64-15.12,7.55-6.31,13.86-11.97,18.91-17.02l7.56,7.56ZM121.61,582.66c30.26,30.26,63.18,56.57,98.81,78.96,35.6,22.36,74.84,35.45,117.71,39.23,13.22-82.57,31.83-167.68,55.79-255.29,23.95-87.63,54.2-169.88,90.77-246.78-2.53-1.25-4.9-2.36-7.09-3.31-2.22-.95-4.9-1.73-8.04-2.37-51.69-16.38-104.8-20.65-159.32-12.76-54.53,7.88-103.22,29.47-146.08,64.77-27.11,22.05-49.65,47.11-67.61,75.17-17.98,28.05-29.64,57.06-34.99,86.99-5.36,29.94-3.31,60.04,6.15,90.3,9.46,30.26,27.42,58.62,53.9,85.1ZM637.86,34.27c-23.33,14.49-43.82,38.14-61.46,70.91-17.66,32.79-32.78,66.83-45.38,102.12,18.27,6.93,37.49,12.91,57.67,17.96,20.17,5.04,40.33,8.18,60.52,9.45,20.16,1.26,39.69-.31,58.62-4.73,18.9-4.42,36.23-13.24,52-26.48,12.6-10.09,22.2-21.91,28.84-35.45,6.6-13.55,9.91-27.26,9.92-41.13-.01-13.87-2.69-27.57-8.04-41.13-5.36-13.54-13.4-25.69-24.11-36.4-17.66-17.66-38.29-27.89-61.93-30.73-23.64-2.84-45.86,2.36-66.66,15.6Z"/></svg>