<?xml version="1.0" encoding="UTF-8"?><svg id="Livello_1" xmlns="http://www.w3.org/2000/svg" viewBox="0 0 1054.65 1019.79"><defs><style>.cls-1{fill:#efefee;}</style></defs><path class="cls-1" d="M653.47,876.91c-17.05,43.44-39.95,76.11-68.7,98.05-28.76,21.9-60.24,35.77-94.44,41.58-34.21,5.79-70.18,3.83-107.95-5.89-37.76-9.75-73.93-24.94-108.5-45.62-28.82-17.24-55.82-38.41-81.02-63.54-25.2-25.13-45.31-52.25-60.32-81.34-15.02-29.1-23.45-59.86-25.3-92.24-1.86-32.41,5.74-64.75,22.81-97l-124.34,6.1c-4.26-.32-6.08-1.96-5.44-4.93-.99-3.94,.67-5.75,4.93-5.43l501.07-22.17c-22.24-24.46-46.05-48.21-71.4-71.21-25.38-22.99-47.53-45.74-66.46-68.25-17.48-19.39-30.87-41.36-40.19-65.94-9.34-24.58-6.12-50.02,9.64-76.38,11.81-19.75,28.7-31.16,50.66-34.24,21.95-3.06,43.7-2.07,65.26,2.99-17.99-29.75-28.06-62.88-30.24-99.39-2.2-36.52,6.06-70.4,24.77-101.69,18.7-31.27,42.23-53.79,70.59-67.58,28.35-13.77,58.27-21.31,89.78-22.58,31.49-1.28,63.32,2.96,95.5,12.69,32.15,9.75,61.84,22.74,89,38.98,4.45,3.79,9.26,6.95,14.45,9.48,5.18,2.55,9.99,5.71,14.45,9.48,38.52,19.68,76.69,38.06,114.56,55.11,37.84,17.05,77.17,31.65,118,43.75l-40.62,67.91c-19.95-20.86-41.35-40.66-64.23-59.37-22.9-18.73-45.94-36.7-69.16-53.93,15.97,16.26,29.1,34.46,39.43,54.59,10.29,20.14,17.73,41.35,22.29,63.63,4.54,22.28,5.24,44.49,2.07,66.61-3.19,22.14-10.93,43.49-23.23,64.06-18.22,30.46-41.31,52.69-69.24,66.71-27.96,14.03-57.88,21.54-89.78,22.58-31.91,1.03-63.76-3.19-95.5-12.69-31.78-9.5-61.22-22.37-88.38-38.61-19.75-11.81-38.74-25.4-56.93-40.75-18.22-15.35-34.55-32.4-49.05-51.13-9.39-6.72-19.97-11.94-31.73-15.62-11.78-3.69-23.57-5.43-35.41-5.25-11.85,.19-22.79,2.58-32.81,7.2-10.05,4.63-18.49,12.7-25.38,24.22s-10.34,22.89-10.31,34.06c.01,11.19,2.19,22,6.59,32.44,4.36,10.44,10.42,19.93,18.17,28.47,7.72,8.55,15.63,16.34,23.72,23.41,31.93,26.93,67.68,55.01,107.2,84.23,39.51,29.24,74.63,61.14,105.37,95.71,30.71,34.58,52.59,72.26,65.67,113.03,13.05,40.76,9.74,86.01-9.93,135.72Zm-374.92,77.5c27.98,16.73,57.36,26.47,88.13,29.24,30.76,2.73,59.83-.54,87.2-9.87,27.38-9.34,52.19-24.68,74.45-45.99,22.25-21.35,39.54-47.89,51.82-79.64,9.01-22.56,13.33-44.28,12.98-65.16-.36-20.9-3.68-41.05-9.95-60.43-6.28-19.42-15.31-37.94-27.09-55.6-11.81-17.67-25.03-34.8-39.67-51.39l-373.53,16.32c-19.2,32.1-28.04,63.7-26.51,94.78,1.53,31.09,9.71,60.84,24.55,89.28,14.85,28.43,34.5,54.43,58.95,78.01,24.47,23.57,50.68,43.72,78.67,60.46ZM516.23,131c-13.29,22.22-21.46,46.13-24.45,71.71-3.02,25.59-1.59,50.75,4.3,75.49,5.86,24.75,16.25,48.02,31.18,69.78,14.9,21.77,33.89,39.55,56.94,53.34,22.22,13.29,46.45,21.36,72.7,24.2,26.22,2.84,51.84,1.12,76.85-5.17,24.97-6.28,48.03-16.8,69.17-31.55,21.1-14.75,37.89-33.49,50.37-56.2,14.1-21.74,22.79-45.59,26.06-71.59,3.23-25.99,1.72-51.49-4.55-76.48-6.3-24.98-16.9-48.38-31.8-70.15-14.93-21.77-33.49-39.31-55.72-52.6-23.05-13.79-47.71-22.09-73.93-24.94-26.25-2.84-51.66-.99-76.23,5.54-24.6,6.53-47.57,17.39-68.92,32.54-21.38,15.16-38.69,33.86-51.98,56.08Z"/></svg>