<?xml version="1.0" encoding="UTF-8"?><svg id="Livello_1" xmlns="http://www.w3.org/2000/svg" viewBox="0 0 878.52 821.99"><defs><style>.cls-1{fill:#efefee;}</style></defs><path class="cls-1" d="M878.24,310.81c.47,3.29,.35,7.87-.35,13.71-.7,5.87-1.3,10.44-1.76,13.71-2.35,22.04-6.11,43.59-11.25,64.69-5.17,21.1-12.43,41.01-21.8,59.77-9.38,18.74-20.98,36.21-34.81,52.38-13.84,16.17-30.6,30.35-50.27,42.54-17.36,9.84-35.98,16.75-55.9,20.74-19.93,3.98-39.97,5.27-60.12,3.87-8.44,11.25-17.82,22.04-28.12,32.34-21.09,21.09-44.54,39.14-70.31,54.14-25.77,15.01-52.74,26.72-80.86,35.16-28.13,8.44-56.83,13.48-86.13,15.12-29.29,1.65-58.48,.12-87.54-4.57l.7,.7c-1.41,8.92-1.64,19-.7,30.24,1.41,11.73,4.22,23.91,8.44,36.56,4.22,12.66,10.32,23.92,18.28,33.75l-61.17,6.33c.93-2.8,1.99-5.5,3.16-8.09,1.16-2.57,2.23-5.26,3.16-8.09,6.1-15.46,10.67-30.82,13.71-46.06,3.05-15.23,5.74-30.58,8.09-46.06-33.75-6.55-66.1-17.8-97.03-33.75-30.94-15.93-59.07-36.56-84.38-61.88-34.68-34.68-60.35-74.41-76.99-119.18C7.64,454.14-.45,408.31,.02,361.43c.46-46.87,9.49-92.68,27.07-137.46,17.58-44.76,43.48-84.26,77.7-118.48,34.21-34.21,73.59-60.23,118.13-78.05C267.44,9.63,313.15,.49,360.03,.02c46.87-.46,92.81,7.74,137.82,24.61,45,16.88,84.85,42.66,119.53,77.34,29.07,29.07,51.91,62,68.56,98.79,16.63,36.81,27.07,74.89,31.29,114.26,4.22,39.38,2.11,78.75-6.33,118.13-8.44,39.38-22.74,76.18-42.89,110.39,9.37,3.75,19.21,6.56,29.53,8.44,19.68,3.74,38.31,1.99,55.9-5.27,17.57-7.26,32.93-18.4,46.06-33.4,16.86-18.75,28.34-40.08,34.45-63.99,6.08-23.91,7.03-47.81,2.81-71.72-2.81-18.74-9.14-35.86-18.99-51.33l60.47-15.47ZM109.71,111.82c-32.8,31.88-54.97,68.33-66.45,109.34-11.49,41.03-14.54,82.74-9.14,125.16,5.38,42.43,17.93,83.56,37.62,123.4,19.69,39.86,44.3,74.53,73.83,104.07,41.26,41.26,89.3,71.96,144.14,92.11,3.27-14.52,7.62-28.94,13.01-43.24,5.39-14.29,12.31-27.53,20.74-39.73,6.56-9.37,13.36-17.8,20.39-25.31,7.03-7.49,15-14.76,23.91-21.8,18.76-15,38.44-25.54,59.06-31.64,20.63-6.09,41.61-9.02,62.93-8.79,21.34,.24,42.65,3.05,63.99,8.44,21.33,5.39,42.07,12.07,62.23,20.04,7.5,2.82,14.64,5.75,21.45,8.79,6.79,3.05,13.71,5.76,20.74,8.09,15.94-31.87,25.43-65.73,28.48-101.6,3.04-35.85,.47-71.25-7.73-106.17-8.2-34.91-21.45-68.56-39.73-100.9-18.28-32.35-40.32-60.93-66.1-85.78-30.46-30.46-65.62-55.54-105.47-75.24-39.85-19.68-80.98-31.98-123.4-36.91-42.42-4.91-84.15-1.39-125.16,10.55-41.01,11.97-77.45,34.34-109.34,67.15Zm497.82,497.82l13.01-13.01c4.45-4.45,8.32-9.26,11.6-14.41-5.16-.46-10.19-1.05-15.12-1.76-4.92-.71-9.96-1.29-15.12-1.76-28.13-4.68-55.55-10.77-82.27-18.28-26.72-7.49-53.91-10.07-81.56-7.74-18.28,2.35-35.74,7.39-52.38,15.12-16.65,7.75-31.75,17.47-45.35,29.18-19.69,18.77-33.75,42.67-42.19,71.72,26.26,9.38,53.21,15.48,80.86,18.28,27.65,2.82,54.85,2.11,81.56-2.11,26.72-4.22,52.61-12.53,77.7-24.96,25.07-12.42,48.16-29.18,69.26-50.27Z"/></svg>